<svg width="220" height="24" viewBox="0 0 220 24" fill="none" xmlns="http://www.w3.org/2000/svg">
<g clip-path="url(#clip0_17_1497)">
<path d="M208.414 17.8812L213.142 20.8769C213.746 21.2598 214.497 20.6903 214.317 19.9847L212.951 14.6108C212.913 14.4611 212.917 14.3036 212.964 14.1564C213.011 14.0092 213.099 13.8783 213.217 13.7787L217.457 10.2496C218.014 9.78588 217.727 8.86126 217.011 8.81481L211.474 8.45544C211.325 8.44479 211.182 8.39198 211.061 8.30317C210.941 8.21437 210.848 8.09321 210.794 7.95382L208.729 2.75323C208.673 2.60528 208.573 2.4779 208.443 2.38802C208.313 2.29814 208.158 2.25 208 2.25C207.842 2.25 207.687 2.29814 207.557 2.38802C207.427 2.4779 207.327 2.60528 207.271 2.75323L205.206 7.95382C205.152 8.09321 205.059 8.21437 204.939 8.30317C204.818 8.39198 204.675 8.44479 204.526 8.45544L198.989 8.81481C198.273 8.86126 197.986 9.78588 198.543 10.2496L202.783 13.7787C202.901 13.8783 202.989 14.0092 203.036 14.1564C203.083 14.3036 203.087 14.4611 203.049 14.6108L201.782 19.5945C201.567 20.4412 202.467 21.1246 203.192 20.6651L207.586 17.8812C207.71 17.8025 207.854 17.7607 208 17.7607C208.147 17.7607 208.29 17.8025 208.414 17.8812V17.8812Z" stroke="#71717A" stroke-width="2" stroke-linecap="round" stroke-linejoin="round"/>
</g>
<g clip-path="url(#clip1_17_1497)">
<path d="M22.4216 9.1322C22.328 8.83822 22.1479 8.57928 21.9049 8.38918C21.6619 8.19908 21.3672 8.08664 21.0593 8.06653L15.4915 7.67688L13.426 2.47595C13.3143 2.18842 13.1182 1.94136 12.8636 1.76714C12.6091 1.59293 12.3078 1.49969 11.9993 1.49963H11.9978C11.6898 1.50018 11.3891 1.59366 11.1351 1.76785C10.8811 1.94204 10.6855 2.18883 10.574 2.47595L8.4778 7.70691L2.94069 8.06653C2.63281 8.08664 2.33814 8.19908 2.09512 8.38918C1.8521 8.57928 1.67203 8.83822 1.57839 9.1322C1.4796 9.43036 1.47288 9.75136 1.5591 10.0534C1.64532 10.3554 1.82048 10.6245 2.06178 10.8256L6.32155 14.4261L5.05446 19.4103C4.96712 19.746 4.98318 20.1003 5.10054 20.4267C5.21789 20.7532 5.43107 21.0366 5.71217 21.2399C5.98357 21.4373 6.30811 21.5485 6.64357 21.559C6.97903 21.5694 7.30987 21.4786 7.59303 21.2985L11.9876 18.5145C11.9934 18.5101 11.9993 18.5072 12.0125 18.5145L16.741 21.5101C16.9977 21.6741 17.2979 21.7569 17.6024 21.7475C17.9069 21.738 18.2014 21.637 18.4475 21.4574C18.7022 21.2733 18.8954 21.0166 19.0018 20.7208C19.1082 20.4251 19.1228 20.1041 19.0437 19.7999L17.6975 14.3551L21.9382 10.8256C22.1795 10.6245 22.3547 10.3554 22.4409 10.0534C22.5271 9.75135 22.5204 9.43036 22.4216 9.1322Z" fill="#005555"/>
</g>
<g clip-path="url(#clip2_17_1497)">
<path d="M71.4216 9.1322C71.328 8.83822 71.1479 8.57928 70.9049 8.38918C70.6619 8.19908 70.3672 8.08664 70.0593 8.06653L64.4915 7.67688L62.426 2.47595C62.3143 2.18842 62.1182 1.94136 61.8636 1.76714C61.6091 1.59293 61.3078 1.49969 60.9993 1.49963H60.9978C60.6898 1.50018 60.3891 1.59366 60.1351 1.76785C59.8811 1.94204 59.6855 2.18883 59.574 2.47595L57.4778 7.70691L51.9407 8.06653C51.6328 8.08664 51.3381 8.19908 51.0951 8.38918C50.8521 8.57928 50.672 8.83822 50.5784 9.1322C50.4796 9.43036 50.4729 9.75136 50.5591 10.0534C50.6453 10.3554 50.8205 10.6245 51.0618 10.8256L55.3215 14.4261L54.0545 19.4103C53.9671 19.746 53.9832 20.1003 54.1005 20.4267C54.2179 20.7532 54.4311 21.0366 54.7122 21.2399C54.9836 21.4373 55.3081 21.5485 55.6436 21.559C55.979 21.5694 56.3099 21.4786 56.593 21.2985L60.9876 18.5145C60.9934 18.5101 60.9993 18.5072 61.0125 18.5145L65.741 21.5101C65.9977 21.6741 66.2979 21.7569 66.6024 21.7475C66.9069 21.738 67.2014 21.637 67.4475 21.4574C67.7022 21.2733 67.8954 21.0166 68.0018 20.7208C68.1082 20.4251 68.1228 20.1041 68.0437 19.7999L66.6975 14.3551L70.9382 10.8256C71.1795 10.6245 71.3547 10.3554 71.4409 10.0534C71.5271 9.75135 71.5204 9.43036 71.4216 9.1322Z" fill="#005555"/>
</g>
<g clip-path="url(#clip3_17_1497)">
<path d="M120.422 9.1322C120.328 8.83822 120.148 8.57928 119.905 8.38918C119.662 8.19908 119.367 8.08664 119.059 8.06653L113.491 7.67688L111.426 2.47595C111.314 2.18842 111.118 1.94136 110.864 1.76714C110.609 1.59293 110.308 1.49969 109.999 1.49963H109.998C109.69 1.50018 109.389 1.59366 109.135 1.76785C108.881 1.94204 108.686 2.18883 108.574 2.47595L106.478 7.70691L100.941 8.06653C100.633 8.08664 100.338 8.19908 100.095 8.38918C99.8521 8.57928 99.672 8.83822 99.5784 9.1322C99.4796 9.43036 99.4729 9.75136 99.5591 10.0534C99.6453 10.3554 99.8205 10.6245 100.062 10.8256L104.322 14.4261L103.054 19.4103C102.967 19.746 102.983 20.1003 103.101 20.4267C103.218 20.7532 103.431 21.0366 103.712 21.2399C103.984 21.4373 104.308 21.5485 104.644 21.559C104.979 21.5694 105.31 21.4786 105.593 21.2985L109.988 18.5145C109.993 18.5101 109.999 18.5072 110.012 18.5145L114.741 21.5101C114.998 21.6741 115.298 21.7569 115.602 21.7475C115.907 21.738 116.201 21.637 116.448 21.4574C116.702 21.2733 116.895 21.0166 117.002 20.7208C117.108 20.4251 117.123 20.1041 117.044 19.7999L115.698 14.3551L119.938 10.8256C120.18 10.6245 120.355 10.3554 120.441 10.0534C120.527 9.75135 120.52 9.43036 120.422 9.1322Z" fill="#005555"/>
</g>
<g clip-path="url(#clip4_17_1497)">
<path d="M169.422 9.1322C169.328 8.83822 169.148 8.57928 168.905 8.38918C168.662 8.19908 168.367 8.08664 168.059 8.06653L162.491 7.67688L160.426 2.47595C160.314 2.18842 160.118 1.94136 159.864 1.76714C159.609 1.59293 159.308 1.49969 158.999 1.49963H158.998C158.69 1.50018 158.389 1.59366 158.135 1.76785C157.881 1.94204 157.686 2.18883 157.574 2.47595L155.478 7.70691L149.941 8.06653C149.633 8.08664 149.338 8.19908 149.095 8.38918C148.852 8.57928 148.672 8.83822 148.578 9.1322C148.48 9.43036 148.473 9.75136 148.559 10.0534C148.645 10.3554 148.82 10.6245 149.062 10.8256L153.322 14.4261L152.054 19.4103C151.967 19.746 151.983 20.1003 152.101 20.4267C152.218 20.7532 152.431 21.0366 152.712 21.2399C152.984 21.4373 153.308 21.5485 153.644 21.559C153.979 21.5694 154.31 21.4786 154.593 21.2985L158.988 18.5145C158.993 18.5101 158.999 18.5072 159.012 18.5145L163.741 21.5101C163.998 21.6741 164.298 21.7569 164.602 21.7475C164.907 21.738 165.201 21.637 165.448 21.4574C165.702 21.2733 165.895 21.0166 166.002 20.7208C166.108 20.4251 166.123 20.1041 166.044 19.7999L164.698 14.3551L168.938 10.8256C169.18 10.6245 169.355 10.3554 169.441 10.0534C169.527 9.75135 169.52 9.43036 169.422 9.1322Z" fill="#005555"/>
</g>
<defs>
<clipPath id="clip0_17_1497">
<rect width="24" height="24" fill="white" transform="translate(196)"/>
</clipPath>
<clipPath id="clip1_17_1497">
<rect width="24" height="24" fill="white"/>
</clipPath>
<clipPath id="clip2_17_1497">
<rect width="24" height="24" fill="white" transform="translate(49)"/>
</clipPath>
<clipPath id="clip3_17_1497">
<rect width="24" height="24" fill="white" transform="translate(98)"/>
</clipPath>
<clipPath id="clip4_17_1497">
<rect width="24" height="24" fill="white" transform="translate(147)"/>
</clipPath>
</defs>
</svg>
